# xmcd
#
# Track frame offsets:
#	150
#	3035
#	17960
#	34282
#	51580
#	67020
#	78317
#	91612
#	104702
#	121595
#	132705
#
# Disc length: 1969
#
# Revision: 3
# Processed by: cddbd v1.5.1PL0 Copyright (c) Steve Scherf et al.
# Submitted via: audiograbber 1.81.02
# Normalized: r2:DSETVAR1
#
DISCID=9007af0b
DTITLE=Various Artist - NASCAR Hotter Than Asphalt
DYEAR=1996
DGENRE=Nascar
TTITLE0=Introduction - The Star Spangled Banner
TTITLE1=Lynyrd Skynrd - White Knuckle Ride
TTITLE2=Mark Collie - Love To Burn
TTITLE3=Joe Diffie - Tearin' It Up
TTITLE4=Waylon Jennings - I Can Run With The Big Dogs
TTITLE5=Alabama - Sunday Drive
TTITLE6=Tracy Lawrence - One Foot On The Pedal
TTITLE7=Tanya Tucker - Going Nowhere And Getting There Fast
TTITLE8=Little Texas - You Gotta Wanna Win
TTITLE9=Hank Williams Jr - Down In Huey Town
TTITLE10=Killer Beaz - Save Up
EXTD=
EXTT0=
EXTT1=Lynard Skynyrd
EXTT2=Mark Collie
EXTT3=Joe Diffie
EXTT4=Waylon Jennings
EXTT5=Alabame
EXTT6=Tracy Lawrence
EXTT7=Tanya Tucker
EXTT8=Little Texas
EXTT9=Hank Williams Jr.
EXTT10=Killer Beaz
PLAYORDER=
